ply
format ascii 1.0
element vertex 797
property float x
property float y
property float z
property uchar red
property uchar green
property uchar blue
end_header
-0.085373 0.061257 0.584000 192 190 193
-0.083174 0.061047 0.582000 190 190 190
-0.080988 0.060837 0.580000 180 180 182
-0.078951 0.060732 0.579000 180 179 184
-0.076788 0.060523 0.577000 174 172 177
-0.074897 0.060523 0.577000 168 166 169
-0.073133 0.060628 0.578000 164 162 163
-0.071239 0.060628 0.578000 159 154 158
-0.069465 0.060732 0.579000 169 164 170
-0.067918 0.061047 0.582000 230 229 234
-0.066238 0.061257 0.584000 203 202 207
-0.094128 0.062635 0.579000 216 216 218
-0.092390 0.062743 0.580000 200 199 204
-0.090646 0.062851 0.581000 120 119 124
-0.088742 0.062851 0.581000 166 164 169
-0.086838 0.062851 0.581000 214 212 217
-0.084788 0.062743 0.580000 192 187 191
-0.082602 0.062526 0.578000 140 140 142
-0.080569 0.062418 0.577000 192 192 194
-0.078542 0.062310 0.576000 178 176 181
-0.076521 0.062202 0.575000 172 170 173
-0.074637 0.062202 0.575000 122 120 123
-0.072753 0.062202 0.575000 184 179 183
-0.070993 0.062310 0.576000 229 224 228
-0.069345 0.062526 0.578000 184 179 185
-0.067685 0.062743 0.580000 142 139 146
-0.066125 0.063067 0.583000 148 147 153
-0.064324 0.063175 0.584000 142 141 147
-0.062518 0.063284 0.585000 81 80 85
-0.103435 0.064425 0.578000 71 72 67
-0.101541 0.064425 0.578000 94 94 92
-0.099475 0.064314 0.577000 200 200 198
-0.097584 0.064314 0.577000 224 224 224
-0.095528 0.064202 0.576000 157 157 159
-0.093803 0.064314 0.577000 130 130 132
-0.092072 0.064425 0.578000 146 145 150
-0.090178 0.064425 0.578000 151 150 155
-0.088284 0.064425 0.578000 130 129 134
-0.086240 0.064314 0.577000 123 121 126
-0.084350 0.064314 0.577000 129 127 130
-0.082173 0.064091 0.575000 135 135 137
-0.080150 0.063979 0.574000 144 144 146
-0.078133 0.063868 0.573000 154 154 156
-0.076122 0.063756 0.572000 218 218 220
-0.074248 0.063756 0.572000 211 209 212
-0.072500 0.063868 0.573000 151 149 154
-0.070869 0.064091 0.575000 145 143 148
-0.069225 0.064314 0.577000 146 144 149
-0.067568 0.064537 0.579000 150 147 154
-0.066011 0.064871 0.582000 133 132 138
-0.064324 0.065094 0.584000 131 130 136
-0.062518 0.065205 0.585000 95 94 99
-0.103435 0.066324 0.578000 139 140 135
-0.101365 0.066209 0.577000 166 165 163
-0.099302 0.066095 0.576000 170 169 167
-0.097415 0.066095 0.576000 168 166 167
-0.095362 0.065980 0.575000 168 168 168
-0.093478 0.065980 0.575000 70 70 72
-0.091594 0.065980 0.575000 60 59 64
-0.089866 0.066095 0.576000 56 55 61
-0.087826 0.065980 0.575000 51 50 55
-0.085792 0.065865 0.574000 56 55 60
-0.083619 0.065636 0.572000 174 172 175
-0.081602 0.065521 0.571000 169 167 170
-0.079591 0.065406 0.570000 167 165 166
-0.077451 0.065177 0.568000 170 170 170
-0.075590 0.065177 0.568000 156 156 156
-0.073859 0.065291 0.569000 146 146 148
-0.072121 0.065406 0.570000 146 145 150
-0.070500 0.065636 0.572000 155 154 160
-0.068985 0.065980 0.575000 90 89 95
-0.067451 0.066324 0.578000 32 29 36
-0.065898 0.066668 0.581000 34 33 39
-0.064214 0.066898 0.583000 104 103 109
-0.062518 0.067127 0.585000 109 110 114
-0.117976 0.070111 0.594000 68 68 68
-0.115834 0.069993 0.593000 68 70 69
-0.113507 0.069757 0.591000 70 72 69
-0.111193 0.069521 0.589000 73 73 71
-0.108707 0.069167 0.586000 72 73 68
-0.105511 0.068341 0.579000 74 75 69
-0.103077 0.067987 0.576000 121 120 116
-0.100838 0.067751 0.574000 156 155 151
-0.098957 0.067751 0.574000 169 168 166
-0.097077 0.067751 0.574000 170 166 165
-0.095030 0.067633 0.573000 174 170 171
-0.093153 0.067633 0.573000 103 101 104
-0.091275 0.067633 0.573000 125 123 128
-0.089242 0.067515 0.572000 124 122 127
-0.087367 0.067515 0.572000 131 129 134
-0.085344 0.067397 0.571000 136 134 137
-0.083327 0.067279 0.570000 176 174 177
-0.081173 0.067043 0.568000 171 167 168
-0.079172 0.066925 0.567000 170 166 167
-0.077178 0.066807 0.566000 167 163 162
-0.075191 0.066688 0.565000 170 169 167
-0.073599 0.066925 0.567000 147 147 149
-0.071868 0.067043 0.568000 53 52 58
-0.070376 0.067397 0.571000 32 32 40
-0.068865 0.067751 0.574000 28 29 34
-0.067451 0.068223 0.578000 24 21 28
-0.065898 0.068577 0.581000 40 39 45
-0.064214 0.068813 0.583000 76 75 80
-0.062518 0.069049 0.585000 133 134 138
-0.119518 0.071820 0.592000 69 69 71
-0.117579 0.071820 0.592000 70 70 72
-0.115639 0.071820 0.592000 68 69 71
-0.113507 0.071699 0.591000 68 70 69
-0.111193 0.071456 0.589000 73 73 71
-0.108336 0.070850 0.584000 74 75 70
-0.105511 0.070243 0.579000 74 73 68
-0.102898 0.069758 0.575000 97 96 92
-0.100662 0.069515 0.573000 164 163 159
-0.098613 0.069394 0.572000 136 132 129
-0.096738 0.069394 0.572000 54 48 48
-0.094698 0.069272 0.571000 52 46 48
-0.092827 0.069272 0.571000 48 42 46
-0.090956 0.069272 0.571000 40 35 41
-0.088930 0.069151 0.570000 40 35 41
-0.086909 0.069030 0.569000 41 39 44
-0.085045 0.069030 0.569000 37 35 38
-0.083034 0.068909 0.568000 36 34 35
-0.080887 0.068666 0.566000 39 33 35
-0.078893 0.068545 0.565000 45 39 39
-0.076905 0.068423 0.564000 185 180 177
-0.075057 0.068423 0.564000 169 165 162
-0.073339 0.068545 0.565000 154 152 153
-0.071868 0.068909 0.568000 29 28 34
-0.070376 0.069272 0.571000 32 31 39
-0.068865 0.069636 0.574000 15 16 21
-0.067335 0.070000 0.577000 152 150 155
-0.065898 0.070486 0.581000 153 152 157
-0.064324 0.070850 0.584000 48 49 53
-0.062518 0.070971 0.585000 146 147 151
-0.119316 0.073640 0.591000 70 71 73
-0.117380 0.073640 0.591000 67 68 70
-0.115443 0.073640 0.591000 70 70 70
-0.113123 0.073391 0.589000 69 69 69
-0.111004 0.073267 0.588000 70 71 66
-0.108336 0.072768 0.584000 73 72 67
-0.105511 0.072145 0.579000 77 73 70
-0.102898 0.071647 0.575000 87 83 80
-0.100662 0.071398 0.573000 166 165 161
-0.098613 0.071273 0.572000 152 153 148
-0.096569 0.071148 0.571000 41 40 38
-0.094533 0.071024 0.570000 44 39 43
-0.092665 0.071024 0.570000 36 34 39
-0.090797 0.071024 0.570000 36 35 40
-0.088774 0.070899 0.569000 35 35 37
-0.086756 0.070775 0.568000 34 34 36
-0.084895 0.070775 0.568000 37 37 39
-0.082888 0.070650 0.567000 36 36 38
-0.080887 0.070525 0.566000 38 36 39
-0.078893 0.070401 0.565000 31 27 28
-0.076905 0.070276 0.564000 183 180 175
-0.075057 0.070276 0.564000 169 166 161
-0.073469 0.070525 0.566000 148 146 149
-0.071868 0.070775 0.568000 18 17 25
-0.070376 0.071148 0.571000 29 30 35
-0.068865 0.071522 0.574000 17 16 22
-0.067451 0.072021 0.578000 148 147 152
-0.065898 0.072394 0.581000 154 153 158
-0.064214 0.072644 0.583000 34 35 39
-0.062518 0.072893 0.585000 150 154 157
-0.119114 0.075454 0.590000 69 71 68
-0.117181 0.075454 0.590000 68 70 69
-0.115053 0.075326 0.589000 68 68 68
-0.112739 0.075070 0.587000 68 70 67
-0.110627 0.074942 0.586000 67 69 64
-0.107964 0.074431 0.582000 70 71 65
-0.105329 0.073919 0.578000 73 69 66
-0.102898 0.073536 0.575000 72 68 65
-0.100662 0.073280 0.573000 166 165 161
-0.098613 0.073152 0.572000 169 170 164
-0.096569 0.073024 0.571000 42 41 39
-0.094533 0.072896 0.570000 38 36 37
-0.092665 0.072896 0.570000 35 35 35
-0.090638 0.072768 0.569000 36 36 38
-0.088774 0.072768 0.569000 32 32 32
-0.086756 0.072640 0.568000 33 33 33
-0.084895 0.072640 0.568000 35 35 35
-0.082888 0.072513 0.567000 41 39 40
-0.080887 0.072385 0.566000 47 45 46
-0.078893 0.072257 0.565000 36 31 35
-0.077042 0.072257 0.565000 181 177 174
-0.075191 0.072257 0.565000 169 168 163
-0.073469 0.072385 0.566000 146 145 150
-0.071868 0.072640 0.568000 24 24 34
-0.070376 0.073024 0.571000 29 30 35
-0.068865 0.073408 0.574000 18 17 23
-0.067451 0.073919 0.578000 149 148 154
-0.065898 0.074303 0.581000 151 150 156
-0.064324 0.074687 0.584000 24 25 29
-0.062518 0.074815 0.585000 151 152 156
-0.119114 0.077392 0.590000 65 67 62
-0.116784 0.077130 0.588000 67 69 66
-0.114662 0.076999 0.587000 67 69 68
-0.112739 0.076999 0.587000 70 72 69
-0.110249 0.076605 0.584000 68 70 65
-0.107779 0.076212 0.581000 68 69 64
-0.105146 0.075687 0.577000 74 73 69
-0.102719 0.075294 0.574000 75 71 70
-0.100487 0.075031 0.572000 167 166 162
-0.098613 0.075031 0.572000 177 178 172
-0.096569 0.074900 0.571000 40 39 37
-0.094533 0.074769 0.570000 38 37 35
-0.092665 0.074769 0.570000 32 31 29
-0.090797 0.074769 0.570000 34 34 32
-0.088774 0.074638 0.569000 32 33 28
-0.086909 0.074638 0.569000 33 34 29
-0.084895 0.074506 0.568000 32 31 27
-0.083034 0.074506 0.568000 33 32 28
-0.080887 0.074244 0.566000 41 39 40
-0.078893 0.074113 0.565000 41 36 40
-0.077042 0.074113 0.565000 174 170 167
-0.075191 0.074113 0.565000 163 162 157
-0.073469 0.074244 0.566000 146 145 150
-0.071868 0.074506 0.568000 33 33 41
-0.070376 0.074900 0.571000 29 30 35
-0.068985 0.075425 0.575000 24 23 29
-0.067451 0.075818 0.578000 150 149 155
-0.065898 0.076212 0.581000 120 121 126
-0.064214 0.076474 0.583000 17 18 22
-0.062518 0.076736 0.585000 149 150 154
-0.060808 0.076999 0.587000 64 65 67
-0.114467 0.078793 0.586000 67 69 68
-0.112355 0.078658 0.585000 64 69 65
-0.109683 0.078120 0.581000 66 71 65
-0.107408 0.077851 0.579000 68 70 65
-0.104782 0.077314 0.575000 73 72 68
-0.102540 0.077045 0.573000 68 64 63
-0.100487 0.076910 0.572000 174 173 169
-0.098613 0.076910 0.572000 175 174 169
-0.096569 0.076776 0.571000 40 36 35
-0.094533 0.076641 0.570000 90 86 85
-0.092665 0.076641 0.570000 173 172 168
-0.090797 0.076641 0.570000 167 168 163
-0.088774 0.076507 0.569000 166 167 162
-0.086909 0.076507 0.569000 168 167 163
-0.084895 0.076372 0.568000 168 167 162
-0.083034 0.076372 0.568000 169 168 163
-0.081030 0.076238 0.567000 164 163 161
-0.079033 0.076104 0.566000 43 38 42
-0.077042 0.075969 0.565000 152 148 147
-0.075191 0.075969 0.565000 169 168 163
-0.073599 0.076238 0.567000 139 138 143
-0.071868 0.076372 0.568000 54 57 62
-0.070500 0.076910 0.572000 29 30 34
-0.068985 0.077314 0.575000 27 27 35
-0.067451 0.077717 0.578000 153 152 158
-0.065898 0.078120 0.581000 18 19 24
-0.064324 0.078524 0.584000 22 23 28
-0.062518 0.078658 0.585000 156 157 161
-0.109305 0.079754 0.579000 64 69 63
-0.106666 0.079203 0.575000 67 69 64
-0.104600 0.079065 0.574000 71 71 69
-0.102361 0.078789 0.572000 74 73 71
-0.100487 0.078789 0.572000 177 176 172
-0.098613 0.078789 0.572000 172 171 166
-0.096569 0.078652 0.571000 36 32 33
-0.094533 0.078514 0.570000 68 64 63
-0.092665 0.078514 0.570000 167 166 162
-0.090797 0.078514 0.570000 165 164 160
-0.088930 0.078514 0.570000 166 166 164
-0.086909 0.078376 0.569000 167 165 166
-0.084895 0.078238 0.568000 168 167 165
-0.083034 0.078238 0.568000 166 165 160
-0.081030 0.078101 0.567000 175 174 172
-0.079033 0.077963 0.566000 44 39 43
-0.077178 0.077963 0.566000 126 122 121
-0.075324 0.077963 0.566000 165 164 160
-0.073599 0.078101 0.567000 137 137 139
-0.071994 0.078376 0.569000 79 82 87
-0.070500 0.078789 0.572000 29 30 34
-0.068985 0.079203 0.575000 27 27 35
-0.067451 0.079616 0.578000 138 137 143
-0.065898 0.080029 0.581000 80 81 86
-0.064324 0.080442 0.584000 22 23 28
-0.062518 0.080580 0.585000 157 158 162
-0.060808 0.080856 0.587000 61 62 64
-0.108928 0.081374 0.577000 66 71 65
-0.106666 0.081092 0.575000 64 69 63
-0.104417 0.080810 0.573000 68 68 66
-0.102361 0.080668 0.572000 71 70 68
-0.100487 0.080668 0.572000 173 172 168
-0.098613 0.080668 0.572000 169 170 164
-0.096569 0.080527 0.571000 37 33 34
-0.094698 0.080527 0.571000 53 49 50
-0.092827 0.080527 0.571000 164 163 159
-0.090797 0.080386 0.570000 133 132 130
-0.088930 0.080386 0.570000 36 36 36
-0.086909 0.080245 0.569000 38 36 39
-0.085045 0.080245 0.569000 35 33 34
-0.083034 0.080104 0.568000 178 177 173
-0.081030 0.079963 0.567000 179 175 174
-0.079033 0.079822 0.566000 43 38 42
-0.077178 0.079822 0.566000 94 90 91
-0.075324 0.079822 0.566000 163 162 158
-0.073599 0.079963 0.567000 142 142 144
-0.071868 0.080104 0.568000 108 112 115
-0.070376 0.080527 0.571000 21 25 26
-0.068865 0.080951 0.574000 109 109 117
-0.067335 0.081374 0.577000 88 87 95
-0.065784 0.081797 0.580000 134 135 140
-0.064214 0.082220 0.583000 40 41 46
-0.062518 0.082502 0.585000 154 155 159
-0.060808 0.082784 0.587000 60 61 63
-0.135904 0.094093 0.652000 66 68 65
-0.134383 0.094526 0.655000 66 68 65
-0.102361 0.082548 0.572000 68 68 66
-0.100487 0.082548 0.572000 166 167 162
-0.098613 0.082548 0.572000 165 166 160
-0.096738 0.082548 0.572000 40 36 37
-0.094698 0.082403 0.571000 41 39 40
-0.092827 0.082403 0.571000 165 164 160
-0.090797 0.082259 0.570000 161 161 159
-0.088774 0.082115 0.569000 38 38 40
-0.086909 0.082115 0.569000 31 30 36
-0.084895 0.081970 0.568000 33 31 34
-0.083034 0.081970 0.568000 180 179 177
-0.081030 0.081826 0.567000 175 171 170
-0.079033 0.081682 0.566000 35 30 34
-0.077178 0.081682 0.566000 70 66 67
-0.075324 0.081682 0.566000 164 163 161
-0.073599 0.081826 0.567000 155 155 157
-0.071868 0.081970 0.568000 132 136 137
-0.070253 0.082259 0.570000 68 72 73
-0.068745 0.082692 0.573000 137 137 145
-0.067218 0.083125 0.576000 115 114 122
-0.065671 0.083558 0.579000 80 79 85
-0.064214 0.084135 0.583000 14 15 20
-0.062518 0.084424 0.585000 148 149 153
-0.060808 0.084712 0.587000 67 71 74
-0.136770 0.095349 0.646000 64 69 63
-0.134028 0.094906 0.643000 65 70 64
-0.132537 0.095349 0.646000 65 70 64
-0.102540 0.084574 0.573000 71 71 69
-0.100662 0.084574 0.573000 157 158 153
-0.098613 0.084427 0.572000 164 167 160
-0.096738 0.084427 0.572000 54 52 53
-0.094698 0.084279 0.571000 36 35 33
-0.092827 0.084279 0.571000 174 173 168
-0.090797 0.084132 0.570000 168 169 164
-0.088774 0.083984 0.569000 49 49 51
-0.086756 0.083836 0.568000 126 125 131
-0.084895 0.083836 0.568000 166 164 169
-0.083034 0.083836 0.568000 51 49 50
-0.081030 0.083689 0.567000 39 35 34
-0.079033 0.083541 0.566000 39 34 38
-0.077178 0.083541 0.566000 52 47 51
-0.075324 0.083541 0.566000 168 167 165
-0.073469 0.083541 0.566000 162 162 164
-0.071868 0.083836 0.568000 151 155 156
-0.070253 0.084132 0.570000 57 61 62
-0.068625 0.084427 0.572000 95 95 103
-0.067101 0.084870 0.575000 23 22 30
-0.065557 0.085312 0.578000 30 29 35
-0.064104 0.085903 0.582000 24 25 30
-0.062518 0.086346 0.585000 137 140 145
-0.060808 0.086641 0.587000 70 74 77
-0.140131 0.096868 0.642000 63 67 66
-0.137597 0.096566 0.640000 63 67 66
-0.134653 0.095962 0.636000 64 68 67
-0.131735 0.095359 0.632000 63 68 64
-0.128844 0.094755 0.628000 63 68 64
-0.126181 0.094303 0.625000 66 68 65
-0.122742 0.093247 0.618000 66 68 65
-0.120718 0.093247 0.618000 66 68 65
-0.103077 0.086909 0.576000 68 69 64
-0.100838 0.086608 0.574000 134 133 129
-0.098785 0.086457 0.573000 163 162 157
-0.096738 0.086306 0.572000 77 73 72
-0.094698 0.086155 0.571000 40 36 37
-0.092827 0.086155 0.571000 175 171 172
-0.090797 0.086004 0.570000 172 168 169
-0.088774 0.085853 0.569000 35 30 34
-0.086756 0.085702 0.568000 106 104 109
-0.084895 0.085702 0.568000 168 166 171
-0.083034 0.085702 0.568000 64 62 65
-0.081030 0.085551 0.567000 35 34 39
-0.079033 0.085401 0.566000 33 32 37
-0.077178 0.085401 0.566000 33 31 34
-0.075324 0.085401 0.566000 170 165 169
-0.073469 0.085401 0.566000 164 162 165
-0.071868 0.085702 0.568000 159 157 162
-0.070130 0.085853 0.569000 34 33 38
-0.068505 0.086155 0.571000 30 30 38
-0.066984 0.086608 0.574000 23 22 28
-0.065444 0.087060 0.577000 92 93 97
-0.063994 0.087664 0.581000 146 147 151
-0.062411 0.088116 0.584000 136 140 143
-0.060705 0.088418 0.586000 93 97 100
-0.059085 0.088871 0.589000 59 63 64
-0.142539 0.097743 0.634000 63 67 66
-0.140462 0.097743 0.634000 64 68 67
-0.137948 0.097435 0.632000 63 67 66
-0.135447 0.097127 0.630000 63 67 66
-0.132748 0.096664 0.627000 64 69 65
-0.130068 0.096202 0.624000 65 70 66
-0.127203 0.095585 0.620000 65 67 64
-0.124767 0.095277 0.618000 65 67 64
-0.121749 0.094506 0.613000 65 67 62
-0.118959 0.093889 0.609000 66 68 65
-0.116196 0.093273 0.605000 63 68 64
-0.113270 0.092502 0.600000 63 68 62
-0.109634 0.091114 0.591000 64 69 63
-0.106969 0.090497 0.587000 63 68 62
-0.103614 0.089264 0.579000 67 69 64
-0.101014 0.088647 0.575000 113 112 107
-0.098785 0.088339 0.573000 163 160 155
-0.096738 0.088185 0.572000 119 115 114
-0.094698 0.088031 0.571000 45 43 44
-0.092827 0.088031 0.571000 44 42 43
-0.090797 0.087877 0.570000 40 38 39
-0.088774 0.087722 0.569000 43 41 44
-0.086756 0.087568 0.568000 38 36 39
-0.084895 0.087568 0.568000 35 35 37
-0.082888 0.087414 0.567000 35 35 37
-0.081030 0.087414 0.567000 31 32 34
-0.079033 0.087260 0.566000 31 32 34
-0.077178 0.087260 0.566000 30 30 30
-0.075324 0.087260 0.566000 169 167 168
-0.073469 0.087260 0.566000 165 163 164
-0.071741 0.087414 0.567000 154 152 155
-0.070007 0.087568 0.568000 26 25 30
-0.068385 0.087877 0.570000 100 101 106
-0.066868 0.088339 0.573000 148 149 153
-0.065331 0.088802 0.576000 137 138 142
-0.063664 0.089110 0.578000 143 144 148
-0.062090 0.089572 0.581000 124 128 131
-0.060290 0.089727 0.582000 58 62 65
-0.058684 0.090189 0.585000 65 69 70
-0.145955 0.097937 0.622000 62 68 64
-0.143917 0.097937 0.622000 64 69 65
-0.142107 0.098094 0.623000 63 68 64
-0.140066 0.098094 0.623000 63 68 64
-0.137803 0.097937 0.622000 64 69 65
-0.135547 0.097779 0.621000 64 69 65
-0.133082 0.097464 0.619000 64 69 65
-0.130630 0.097150 0.617000 65 67 64
-0.128192 0.096835 0.615000 65 67 64
-0.125766 0.096520 0.613000 64 66 61
-0.123152 0.096047 0.610000 66 68 63
-0.120558 0.095575 0.607000 67 69 64
-0.117983 0.095103 0.604000 66 68 65
-0.115428 0.094630 0.601000 64 69 65
-0.112892 0.094158 0.598000 64 69 63
-0.109634 0.093056 0.591000 64 69 63
-0.107151 0.092583 0.588000 64 69 63
-0.104508 0.091954 0.584000 68 70 65
-0.101190 0.090694 0.576000 88 89 83
-0.098785 0.090222 0.573000 164 163 158
-0.096738 0.090064 0.572000 139 138 136
-0.094864 0.090064 0.572000 39 39 37
-0.092827 0.089907 0.571000 35 35 33
-0.090797 0.089749 0.570000 35 35 35
-0.088774 0.089592 0.569000 36 36 36
-0.086756 0.089434 0.568000 33 33 33
-0.084895 0.089434 0.568000 37 39 38
-0.082888 0.089277 0.567000 32 34 33
-0.081030 0.089277 0.567000 35 37 36
-0.079033 0.089119 0.566000 30 32 29
-0.077178 0.089119 0.566000 49 49 47
-0.075191 0.088962 0.565000 172 172 170
-0.073469 0.089119 0.566000 166 166 164
-0.071615 0.089119 0.566000 141 141 141
-0.069883 0.089277 0.567000 144 145 149
-0.068265 0.089592 0.569000 138 139 144
-0.066634 0.089907 0.571000 144 145 149
-0.064990 0.090222 0.573000 122 126 129
-0.063333 0.090536 0.575000 45 49 52
-0.061556 0.090694 0.576000 58 62 65
-0.059565 0.090536 0.575000 58 63 66
-0.150114 0.098694 0.614000 64 69 63
-0.147860 0.098534 0.613000 64 69 63
-0.145852 0.098534 0.613000 62 69 62
-0.143843 0.098534 0.613000 63 70 63
-0.141835 0.098534 0.613000 63 68 62
-0.139826 0.098534 0.613000 63 68 62
-0.138043 0.098694 0.614000 63 68 62
-0.136031 0.098694 0.614000 63 68 64
-0.133801 0.098534 0.613000 62 67 63
-0.131577 0.098373 0.612000 63 68 64
-0.129148 0.098051 0.610000 65 67 62
-0.126524 0.097569 0.607000 66 68 63
-0.124125 0.097248 0.605000 66 68 63
-0.121537 0.096765 0.602000 67 69 64
-0.118969 0.096283 0.599000 66 68 63
-0.116615 0.095962 0.597000 67 69 64
-0.114275 0.095640 0.595000 64 69 63
-0.111759 0.095158 0.592000 64 69 63
-0.109449 0.094836 0.590000 64 69 63
-0.106604 0.094033 0.585000 64 69 63
-0.103793 0.093229 0.580000 65 67 62
-0.101190 0.092586 0.576000 67 68 63
-0.098785 0.092104 0.573000 163 164 159
-0.096738 0.091943 0.572000 159 159 157
-0.094698 0.091782 0.571000 160 160 158
-0.092665 0.091622 0.570000 165 165 165
-0.090638 0.091461 0.569000 172 172 172
-0.088618 0.091300 0.568000 173 173 173
-0.086756 0.091300 0.568000 174 176 175
-0.084746 0.091139 0.567000 170 172 171
-0.082888 0.091139 0.567000 168 170 169
-0.080887 0.090979 0.566000 167 169 166
-0.078893 0.090818 0.565000 158 160 157
-0.077042 0.090818 0.565000 159 159 157
-0.075057 0.090657 0.564000 162 162 160
-0.073209 0.090657 0.564000 160 160 160
-0.071361 0.090657 0.564000 145 145 147
-0.069637 0.090818 0.565000 144 145 149
-0.067905 0.090979 0.566000 125 126 131
-0.066284 0.091300 0.568000 38 42 45
-0.064537 0.091461 0.569000 51 55 58
-0.062893 0.091782 0.571000 58 62 65
-0.060915 0.091622 0.570000 52 57 60
-0.059047 0.091622 0.570000 57 62 65
-0.057079 0.091461 0.569000 60 66 66
-0.055118 0.091300 0.568000 60 66 66
-0.152129 0.099399 0.606000 63 68 62
-0.150143 0.099399 0.606000 63 68 62
-0.147913 0.099235 0.605000 63 68 62
-0.145690 0.099071 0.604000 63 68 62
-0.143473 0.098907 0.603000 62 69 62
-0.141497 0.098907 0.603000 62 69 62
-0.139521 0.098907 0.603000 64 69 63
-0.137545 0.098907 0.603000 62 67 61
-0.135345 0.098743 0.602000 64 69 63
-0.133151 0.098579 0.601000 63 68 62
-0.130963 0.098415 0.600000 64 69 63
-0.128567 0.098087 0.598000 63 68 62
-0.126396 0.097923 0.597000 63 68 62
-0.124023 0.097595 0.595000 65 67 62
-0.121868 0.097431 0.594000 65 67 62
-0.119518 0.097103 0.592000 66 68 63
-0.117181 0.096775 0.590000 66 68 63
-0.114857 0.096447 0.588000 64 69 63
-0.112547 0.096119 0.586000 63 68 62
-0.110438 0.095955 0.585000 63 68 62
-0.108150 0.095627 0.583000 62 67 61
-0.105693 0.095134 0.580000 62 67 61
-0.103256 0.094642 0.577000 61 66 60
-0.100662 0.093986 0.573000 57 59 54
-0.098613 0.093822 0.572000 168 170 165
-0.096569 0.093658 0.571000 170 170 168
-0.094533 0.093494 0.570000 170 168 169
-0.092502 0.093330 0.569000 169 169 169
-0.090479 0.093166 0.568000 64 64 66
-0.088618 0.093166 0.568000 34 34 36
-0.086604 0.093002 0.567000 30 30 32
-0.084596 0.092838 0.566000 35 35 37
-0.082596 0.092674 0.565000 29 29 31
-0.080744 0.092674 0.565000 101 101 99
-0.078753 0.092510 0.564000 166 166 164
-0.076633 0.092182 0.562000 170 169 167
-0.074791 0.092182 0.562000 169 167 168
-0.072950 0.092182 0.562000 171 169 170
-0.070982 0.092018 0.561000 126 124 127
-0.069267 0.092182 0.562000 41 40 45
-0.067546 0.092346 0.563000 58 57 63
-0.065701 0.092346 0.563000 56 60 63
-0.063970 0.092510 0.564000 56 60 63
-0.062232 0.092674 0.565000 55 59 62
-0.060274 0.092510 0.564000 53 58 61
-0.058426 0.092510 0.564000 57 63 63
-0.056578 0.092510 0.564000 60 66 66
-0.054730 0.092510 0.564000 62 66 67
-0.154812 0.100553 0.601000 62 69 62
-0.152334 0.100219 0.599000 63 68 62
-0.149870 0.099884 0.597000 63 68 62
-0.147666 0.099717 0.596000 63 68 62
-0.145224 0.099382 0.594000 64 69 63
-0.143278 0.099382 0.594000 64 69 63
-0.141093 0.099215 0.593000 62 69 62
-0.139150 0.099215 0.593000 63 70 63
-0.136976 0.099048 0.592000 62 69 62
-0.135036 0.099048 0.592000 63 68 62
-0.133096 0.099048 0.592000 63 68 62
-0.130935 0.098880 0.591000 62 67 61
-0.128562 0.098546 0.589000 63 68 62
-0.126417 0.098378 0.588000 64 69 63
-0.124067 0.098044 0.586000 63 68 62
-0.121939 0.097876 0.585000 63 68 62
-0.119817 0.097709 0.584000 62 67 61
-0.117701 0.097542 0.583000 62 67 61
-0.115592 0.097375 0.582000 65 67 62
-0.113490 0.097207 0.581000 63 68 62
-0.111202 0.096873 0.579000 62 67 61
-0.109116 0.096705 0.578000 62 67 61
-0.106851 0.096371 0.576000 60 65 59
-0.104600 0.096036 0.574000 57 62 56
-0.102540 0.095869 0.573000 58 63 57
-0.100487 0.095701 0.572000 63 68 62
-0.098268 0.095367 0.570000 56 58 53
-0.096231 0.095199 0.569000 57 57 57
-0.094367 0.095199 0.569000 58 58 58
-0.092340 0.095032 0.568000 55 55 55
-0.090319 0.094865 0.567000 41 41 43
-0.088461 0.094865 0.567000 33 33 35
-0.086451 0.094698 0.566000 32 32 34
-0.084447 0.094530 0.565000 35 35 37
-0.082449 0.094363 0.564000 34 34 36
-0.080459 0.094196 0.563000 42 40 41
-0.078335 0.093861 0.561000 55 53 54
-0.076224 0.093526 0.559000 61 59 60
-0.074259 0.093359 0.558000 64 62 63
-0.072431 0.093359 0.558000 59 57 58
-0.070602 0.093359 0.558000 62 60 63
-0.068774 0.093359 0.558000 62 60 65
-0.066946 0.093359 0.558000 60 58 63
-0.065234 0.093526 0.559000 56 57 59
-0.063402 0.093526 0.559000 53 57 58
-0.061571 0.093526 0.559000 52 56 57
-0.059739 0.093526 0.559000 53 57 58
-0.057908 0.093526 0.559000 58 62 63
-0.055976 0.093359 0.558000 59 63 64
-0.054050 0.093192 0.557000 62 66 65
-0.052319 0.093359 0.558000 62 66 65
-0.157430 0.101675 0.596000 62 69 62
-0.155216 0.101504 0.595000 62 69 62
-0.152751 0.101163 0.593000 61 68 61
-0.150300 0.100822 0.591000 61 68 61
-0.147610 0.100310 0.588000 62 69 62
-0.145436 0.100139 0.587000 63 68 62
-0.143268 0.099969 0.586000 63 68 62
-0.141107 0.099798 0.585000 63 68 62
-0.139190 0.099798 0.585000 63 68 62
-0.137038 0.099628 0.584000 61 68 61
-0.134893 0.099457 0.583000 62 69 62
-0.132755 0.099286 0.582000 62 67 61
-0.130399 0.098945 0.580000 62 67 61
-0.128277 0.098775 0.579000 61 68 61
-0.125943 0.098433 0.577000 62 67 61
-0.123837 0.098263 0.576000 63 68 62
-0.121950 0.098263 0.576000 63 68 62
-0.119854 0.098092 0.575000 62 67 61
-0.117970 0.098092 0.575000 62 67 61
-0.116086 0.098092 0.575000 62 67 61
-0.113805 0.097751 0.573000 62 67 61
-0.111732 0.097581 0.572000 63 68 62
-0.109858 0.097581 0.572000 62 67 61
-0.107606 0.097239 0.570000 63 68 62
-0.105738 0.097239 0.570000 61 66 60
-0.103689 0.097069 0.569000 62 67 61
-0.101824 0.097069 0.569000 58 63 57
-0.099960 0.097069 0.569000 56 61 55
-0.098095 0.097069 0.569000 59 64 58
-0.096062 0.096898 0.568000 60 62 57
-0.094201 0.096898 0.568000 56 58 55
-0.092177 0.096728 0.567000 55 57 54
-0.090160 0.096557 0.566000 48 50 49
-0.088149 0.096386 0.565000 46 48 47
-0.085993 0.096045 0.563000 46 48 47
-0.083849 0.095704 0.561000 44 46 45
-0.081719 0.095363 0.559000 45 47 46
-0.079744 0.095192 0.558000 51 51 51
-0.077636 0.094851 0.556000 59 59 57
-0.075542 0.094510 0.554000 59 59 57
-0.073594 0.094339 0.553000 61 61 59
-0.071782 0.094339 0.553000 61 61 61
-0.069843 0.094169 0.552000 64 64 64
-0.068034 0.094169 0.552000 59 59 59
-0.066226 0.094169 0.552000 53 53 55
-0.064417 0.094169 0.552000 52 54 53
-0.062608 0.094169 0.552000 52 54 53
-0.060800 0.094169 0.552000 54 55 57
-0.058991 0.094169 0.552000 55 59 60
-0.057079 0.093998 0.551000 57 61 62
-0.055173 0.093827 0.550000 63 65 64
-0.053177 0.093486 0.548000 64 66 65
-0.051288 0.093316 0.547000 64 66 65
-0.149028 0.101894 0.586000 61 68 61
-0.145853 0.101025 0.581000 61 68 61
-0.143454 0.100677 0.579000 63 68 62
-0.141312 0.100503 0.578000 63 68 62
-0.139177 0.100329 0.577000 63 68 62
-0.137286 0.100329 0.577000 63 68 62
-0.134927 0.099981 0.575000 61 68 61
-0.132580 0.099634 0.573000 60 67 60
-0.130474 0.099460 0.572000 61 68 61
-0.128375 0.099286 0.571000 62 67 61
-0.126283 0.099112 0.570000 62 69 62
-0.124415 0.099112 0.570000 62 69 62
-0.122332 0.098938 0.569000 61 68 61
-0.120256 0.098764 0.568000 61 68 61
-0.118395 0.098764 0.568000 62 67 61
-0.116329 0.098590 0.567000 62 67 61
-0.114269 0.098416 0.566000 63 68 62
-0.112216 0.098242 0.565000 62 67 61
-0.110169 0.098069 0.564000 63 68 62
-0.108321 0.098069 0.564000 63 68 62
-0.106473 0.098069 0.564000 63 68 62
-0.104625 0.098069 0.564000 63 68 62
-0.102960 0.098242 0.565000 64 69 63
-0.101287 0.098416 0.566000 64 69 63
-0.099608 0.098590 0.567000 62 67 61
-0.097751 0.098590 0.567000 63 68 62
-0.095724 0.098416 0.566000 61 66 59
-0.093537 0.098069 0.564000 55 60 54
-0.091527 0.097895 0.563000 56 61 55
-0.089204 0.097373 0.560000 54 59 53
-0.086901 0.096851 0.557000 53 58 54
-0.084771 0.096504 0.555000 50 55 51
-0.082803 0.096330 0.554000 51 56 52
-0.080695 0.095982 0.552000 51 56 52
-0.078744 0.095808 0.551000 54 56 53
-0.076659 0.095460 0.549000 53 55 52
-0.074724 0.095286 0.548000 58 63 59
-0.072795 0.095113 0.547000 56 61 57
-0.070873 0.094939 0.546000 60 65 61
-0.069084 0.094939 0.546000 55 60 56
-0.067295 0.094939 0.546000 57 62 58
-0.065506 0.094939 0.546000 55 57 54
-0.063600 0.094765 0.545000 53 55 54
-0.061815 0.094765 0.545000 53 55 54
-0.060029 0.094765 0.545000 56 58 57
-0.058243 0.094765 0.545000 57 59 58
-0.056354 0.094591 0.544000 58 60 59
-0.054571 0.094591 0.544000 63 65 64
-0.052595 0.094243 0.542000 64 66 65
-0.050725 0.094069 0.541000 65 65 63
-0.048681 0.093548 0.538000 64 66 65
-0.046831 0.093374 0.537000 65 67 66
-0.143594 0.101339 0.572000 62 69 62
-0.141472 0.101162 0.571000 64 66 61
-0.139356 0.100984 0.570000 65 67 62
-0.137006 0.100630 0.568000 65 67 62
-0.134907 0.100453 0.567000 64 67 60
-0.132815 0.100276 0.566000 63 66 59
-0.130729 0.100099 0.565000 64 67 60
-0.128421 0.099744 0.563000 65 67 62
-0.126352 0.099567 0.562000 64 66 61
-0.124289 0.099390 0.561000 63 68 62
-0.122451 0.099390 0.561000 63 68 62
-0.120397 0.099213 0.560000 61 66 59
-0.118562 0.099213 0.560000 61 66 59
-0.116519 0.099036 0.559000 61 66 60
-0.114688 0.099036 0.559000 63 68 62
-0.112654 0.098858 0.558000 63 68 64
-0.110627 0.098681 0.557000 61 66 62
-0.108802 0.098681 0.557000 61 66 62
-0.106977 0.098681 0.557000 62 67 63
-0.105152 0.098681 0.557000 62 67 63
-0.103512 0.098858 0.558000 62 67 63
-0.101866 0.099036 0.559000 62 67 63
-0.100393 0.099390 0.561000 65 67 62
-0.098906 0.099744 0.563000 64 66 61
-0.097061 0.099744 0.563000 63 65 60
-0.094709 0.099213 0.560000 59 64 58
-0.092542 0.098858 0.558000 55 60 54
-0.090064 0.098150 0.554000 55 57 52
-0.087771 0.097618 0.551000 55 57 54
-0.085497 0.097087 0.548000 55 57 54
-0.083396 0.096732 0.546000 54 56 53
-0.081458 0.096555 0.545000 51 53 52
-0.079526 0.096378 0.544000 49 53 52
-0.077600 0.096201 0.543000 51 55 54
-0.075821 0.096201 0.543000 51 57 55
-0.073906 0.096024 0.542000 51 57 53
-0.072130 0.096024 0.542000 56 61 57
-0.070224 0.095847 0.541000 57 62 58
-0.068451 0.095847 0.541000 57 62 58
-0.066555 0.095669 0.540000 58 60 57
-0.064666 0.095492 0.539000 54 56 53
-0.062783 0.095315 0.538000 53 55 54
-0.061021 0.095315 0.538000 55 57 56
-0.059148 0.095138 0.537000 56 58 57
-0.057281 0.094961 0.536000 57 59 58
-0.055525 0.094961 0.536000 57 59 58
-0.053668 0.094784 0.535000 64 66 65
-0.051818 0.094606 0.534000 63 65 64
-0.049881 0.094252 0.532000 64 66 65
-0.047957 0.093898 0.530000 65 65 67
-0.045872 0.093189 0.526000 66 66 66
-0.145796 0.102135 0.566000 61 66 60
-0.144451 0.102496 0.568000 63 68 64
-0.142087 0.102135 0.566000 61 66 62
-0.140233 0.102135 0.566000 62 67 61
-0.138134 0.101955 0.565000 64 69 63
-0.135800 0.101594 0.563000 63 68 62
-0.133480 0.101233 0.561000 62 67 61
-0.131172 0.100872 0.559000 61 66 59
-0.111241 0.099428 0.551000 62 67 63
-0.109237 0.099248 0.550000 62 66 65
-0.107435 0.099248 0.550000 63 68 64
-0.105633 0.099248 0.550000 63 68 64
-0.103830 0.099248 0.550000 62 67 63
-0.102028 0.099248 0.550000 62 67 63
-0.100226 0.099248 0.550000 60 65 59
-0.098424 0.099248 0.550000 61 66 60
-0.097852 0.100511 0.557000 61 66 60
-0.096027 0.100511 0.557000 60 65 59
-0.094032 0.100331 0.556000 57 62 56
-0.088113 0.097804 0.542000 56 61 55
-0.141585 0.103627 0.564000 61 66 62
-0.139737 0.103627 0.564000 61 67 63
-0.137156 0.103076 0.561000 61 67 63
